<?xml version="1.0" standalone="no"?><!DOCTYPE svg PUBLIC "-//W3C//DTD SVG 1.1//EN" "http://www.w3.org/Graphics/SVG/1.1/DTD/svg11.dtd"><svg t="1536742066869" class="icon" style="" viewBox="0 0 1024 1024" version="1.1" xmlns="http://www.w3.org/2000/svg" p-id="3287" xmlns:xlink="http://www.w3.org/1999/xlink" width="200" height="200"><defs><style type="text/css"></style></defs><path d="M884.363636 619.054545v-186.181818h-4.654545L535.272727 176.872727v-93.090909h107.054546v-46.545454H488.727273v144.290909L144.290909 437.527273H139.636364v186.181818h55.854545v325.818182H139.636364v46.545454h744.727272v-46.545454h-55.854545v-325.818182H884.363636v-4.654546zM512 218.763636l288.581818 214.109091H223.418182L512 218.763636z m-325.818182 260.654546h651.636364v93.090909H186.181818v-93.090909z m242.036364 139.636363v325.818182H358.4v-325.818182h69.818182z m46.545454 0h69.818182v325.818182H474.763636v-325.818182z m121.018182 0h69.818182v325.818182H595.781818v-325.818182z m-353.745454 0h69.818181v325.818182H242.036364v-325.818182z m539.927272 321.163637h-69.818181v-325.818182h69.818181v325.818182z" p-id="3288" fill="#ffffff"></path></svg>