<?xml version="1.0" standalone="no"?><!DOCTYPE svg PUBLIC "-//W3C//DTD SVG 1.1//EN" "http://www.w3.org/Graphics/SVG/1.1/DTD/svg11.dtd"><svg t="1536742098647" class="icon" style="" viewBox="0 0 1024 1024" version="1.1" xmlns="http://www.w3.org/2000/svg" p-id="4453" xmlns:xlink="http://www.w3.org/1999/xlink" width="200" height="200"><defs><style type="text/css"></style></defs><path d="M938.562099 384H85.570099c-13.824 0-26.112-8.704-30.208-22.016-4.608-13.312 0-27.648 11.264-35.84L492.610099 6.656c11.264-8.704 27.136-8.704 38.4 0L957.506099 326.656c11.264 8.192 15.36 22.528 11.264 35.84-4.096 12.8-16.384 21.504-30.208 21.504zM181.314099 320h661.504L512.066099 72.192 181.314099 320z" fill="#ffffff" p-id="4454"></path><path d="M266.306099 896c-17.92 0-32.256-14.336-32.256-32.256v-512c0-17.92 14.336-32.256 32.256-32.256s32.256 14.336 32.256 32.256v512c-0.512 17.92-14.848 32.256-32.256 32.256zM162.882099 896c-17.92 0-32.256-14.336-32.256-32.256v-512c0-17.92 14.336-32.256 32.256-32.256s32.256 14.336 32.256 32.256v512c-0.512 17.92-14.848 32.256-32.256 32.256zM414.274099 896c-17.92 0-32.256-14.336-32.256-32.256v-512c0-17.92 14.336-32.256 32.256-32.256s32.256 14.336 32.256 32.256v512c0 17.92-14.336 32.256-32.256 32.256zM609.858099 896c-17.92 0-32.256-14.336-32.256-32.256v-512c0-17.92 14.336-32.256 32.256-32.256s32.256 14.336 32.256 32.256v512c-0.512 17.92-14.848 32.256-32.256 32.256zM757.314099 896c-17.92 0-32.256-14.336-32.256-32.256v-512c0-17.92 14.336-32.256 32.256-32.256s32.256 14.336 32.256 32.256v512c0 17.92-14.336 32.256-32.256 32.256zM861.250099 896c-17.92 0-32.256-14.336-32.256-32.256v-512c0-17.92 14.336-32.256 32.256-32.256s32.256 14.336 32.256 32.256v512c0 17.92-14.336 32.256-32.256 32.256z" fill="#ffffff" p-id="4455"></path><path d="M992.322099 1024H31.810099c-11.776 0-22.016-6.144-27.648-16.384-5.632-10.24-5.632-22.528 0.512-32.256l77.824-128c5.632-9.728 16.384-15.36 27.136-15.36h804.864c11.264 0 21.504 5.632 27.136 15.36l77.824 128c6.144 9.728 6.144 22.016 0.512 32.256-5.632 10.24-16.384 16.384-27.648 16.384zM88.642099 960h846.336L896.066099 896H127.554099l-38.912 64z" fill="#ffffff" p-id="4456"></path><path d="M512.066099 220.16m-53.248 0a53.248 53.248 0 1 0 106.496 0 53.248 53.248 0 1 0-106.496 0Z" fill="#ffffff" p-id="4457"></path></svg>