<?xml version="1.0" standalone="no"?><!DOCTYPE svg PUBLIC "-//W3C//DTD SVG 1.1//EN" "http://www.w3.org/Graphics/SVG/1.1/DTD/svg11.dtd"><svg t="1536742130970" class="icon" style="" viewBox="0 0 1024 1024" version="1.1" xmlns="http://www.w3.org/2000/svg" p-id="5473" xmlns:xlink="http://www.w3.org/1999/xlink" width="200" height="200"><defs><style type="text/css"></style></defs><path d="M694.1 855.6V678c1.2 0.2 2.4 0.3 3.6 0.5 8.8 1.1 17.2 2.2 25.6 2.3 38.9 0.4 76.4-1.8 104.4-35.8 43.3-52.4 43-124.8-0.8-180-12.2-15.4-17.9-38.2-22.9-58.2-1.7-7-1.5-14.9-1.3-23.2 0.2-9.5 0.5-19.2-2.1-28.8-1.4-5.2-2.7-10.5-4-15.8-6.5-26-13.2-52.9-29.6-72.5-24.1-28.9-38.2-55.7-45.8-87-11.6-47.6-39.1-69.1-89.2-69.6-53.2-0.4-81.1 20.8-93.2 71.4-8 33.7-22.4 60.3-45.2 83.6-17.4 17.8-26.4 45-30.9 64.7-3.1 13.5-3.4 27.4-3.6 40.8-0.2 12.5-0.5 24.4-2.8 35.7-3.1 14.7-9.4 28.7-16.1 43.5-2.9 6.5-5.8 12.9-8.5 19.4-3.1 7.6-6.9 15.4-10.6 22.9-8.5 17.2-17.2 35-19.3 54-3.8 35.9 4.6 67.6 24.5 91.6 20.6 24.9 51.6 39.7 89.8 42.8 13.3 1.1 26.9 0.8 40 0.5 3.3-0.1 6.6-0.1 9.9-0.2v175H252.8v-91.4h34l66.3-124.6c6-11.2 1.7-25.2-9.5-31.2-11.3-6-25.2-1.7-31.2 9.5l-53.3 100.2H155.5c-12.7 0-23.1 10.3-23.1 23.1s10.3 23.1 23.1 23.1h51.1v91.4H63v58.2h900v-58.2H694.1z m-70.4-197.9c0-17.2-1.8-29.2-10.2-36.2-8.4-7-20.6-6.5-37.7-3.4-20.3 3.6-40 5.9-58.5 6.8-25.9 1.2-44-10.6-53.6-35-13.8-34.9-11.9-60.7 5.8-78.9 32.4-33.3 46.3-74.6 44-129.9-1.6-39.5 10.2-70.3 38.4-99.8 17.1-17.9 25.5-43.3 33.6-68 1.8-5.3 3.5-10.6 5.3-15.7 10.1-28.7 16.9-33.5 45.2-32.2 17.5 0.8 26.6 7.7 29.6 22.4 9.8 49.2 29.8 86.9 63.1 118.7 9.1 8.7 12.2 27.3 15.1 43.8 0.6 3.3 1.1 6.6 1.7 9.7 2.3 12 2.3 24.6 2.2 37.8 0 5.2 0 10.4 0.1 15.6 0.9 32.8 12.2 61.6 34.6 87.8 9.3 10.9 19.6 27.9 20.7 43.1 1.5 20-0.4 47.5-17.7 64.6-13.1 13-33.3 18.6-60.3 16.4-9.7-0.7-19.2-2.8-29.3-4.9-5.2-1.1-10.5-2.2-15.7-3.2-12.3-2.2-25-3.2-33.8 4.1-8.9 7.4-10.1 20.4-10.2 32.2-0.4 55.7-0.7 121.9 0.1 190 0.1 7.5-1.1 10.6-1.9 11.8h-10.4V803c-0.1-48.7-0.1-97-0.2-145.3z" p-id="5474" fill="#ffffff"></path></svg>