<?xml version="1.0" standalone="no"?><!DOCTYPE svg PUBLIC "-//W3C//DTD SVG 1.1//EN" "http://www.w3.org/Graphics/SVG/1.1/DTD/svg11.dtd"><svg t="1536742117592" class="icon" style="" viewBox="0 0 1024 1024" version="1.1" xmlns="http://www.w3.org/2000/svg" p-id="5030" xmlns:xlink="http://www.w3.org/1999/xlink" width="200" height="200"><defs><style type="text/css"></style></defs><path d="M507.3 314c0.1 5.8 1.4 10.1 3.7 13 2.3 2.8 6.5 4.5 12.8 5.1V300c-8.3-1.4-14.5-4-18.1-7.7-3.7-3.7-5.5-8.6-5.5-14.6 0-6.4 1.9-11.5 5.9-15.3 4-3.8 9.9-6 17.8-6.7v-10.1h7.2v10.1c7.8 0.8 13.6 3.1 17.1 6.8 3.5 3.7 5.3 8.7 5.3 14.9h-8.6c-0.6-4.5-1.9-8-3.8-10.1-1.9-2.2-5.1-3.5-9.9-3.8v29c2.7 0.8 4.7 1.3 6.4 1.8 1.7 0.5 3 0.9 4.1 1.3 1 0.4 1.9 0.9 2.6 1.3s1.5 0.9 2.4 1.5c3.2 2.2 5.5 4.6 7.1 7.6 1.4 2.8 2.2 6.4 2.2 10.8 0 7.1-2.1 12.6-6 16.6-4.1 3.8-10.3 6.2-18.7 6.8v11.5H524v-11.5c-9.2-0.8-15.8-3.2-19.6-7.6-4-4.4-5.9-10.4-5.8-18.3h8.7v-0.3z m4.8-28c2.2 2.3 6 4 11.7 5v-27.6c-5.1 0.3-8.9 1.5-11.3 4.1-2.4 2.4-3.6 5.8-3.6 9.6 0 3.7 1 6.8 3.2 8.9z m31.2 21.2c-2.3-2.6-6.4-4.6-12.4-5.9v30.8c5-0.1 8.9-1.5 11.7-4.4 2.7-2.7 4.1-6.2 4.1-10.4 0-4.1-1.1-7.5-3.4-10.1z" fill="#ffffff" p-id="5031"></path><path d="M823.4 421.4v-30.2h54V296l-355.3-90.9L166.8 296v95.2h54v30.2l26.9 26.9v253.9l-26.9 26.9v25.2h-54V816h25.7v-35.9h659.3V816h25.7v-61.6h-54v-25.2l-26.9-26.9V448.4l26.8-27z m-631-105.3l329.7-84.2 329.7 84.2v49.5H192.4v-49.5z m521.4 438.2H576.9v-25.2L550 702.2V448.4l26.9-26.9v-30.2h137v30.2l26.9 26.9v253.9l-26.9 26.9v25h-0.1z m-383.4-363h137v30.2l26.9 26.9v253.9l-26.9 26.9v25.2h-137v-25.2l-26.9-26.9V448.4l26.9-26.9v-30.2z m149.7 343.2l26.9-26.9V443.1l-26.9-26.9v-24.9H564v24.9l-26.9 26.9v264.5l26.9 26.9v19.9h-83.9v-19.9z m-246.5 0l26.9-26.9V443.1l-26.9-26.9v-24.9h83.9v24.9l-26.9 26.9v264.5l26.9 26.9v19.9h-83.9v-19.9z m577 0v19.9h-83.9v-19.9l26.9-26.9V443.1l-26.9-26.9v-24.9h83.9v24.9l-26.9 26.9v264.5l26.9 26.9z" fill="#ffffff" p-id="5032"></path></svg>