<?xml version="1.0" standalone="no"?><!DOCTYPE svg PUBLIC "-//W3C//DTD SVG 1.1//EN" "http://www.w3.org/Graphics/SVG/1.1/DTD/svg11.dtd"><svg t="1536742107632" class="icon" style="" viewBox="0 0 1024 1024" version="1.1" xmlns="http://www.w3.org/2000/svg" p-id="4879" xmlns:xlink="http://www.w3.org/1999/xlink" width="200" height="200"><defs><style type="text/css"></style></defs><path d="M932.718529 872.827999l-42.497906 0 0-526.511505c0-14.152325-7.519254-27.238364-19.745716-34.365692L654.758889 186.198749c-12.30321-7.1744-27.503401-7.221472-39.851637-0.125867-12.347213 7.094582-19.961634 20.250206-19.961634 34.491559l0 652.264581L549.703205 872.829022 549.703205 117.142977c0-13.373589-6.721075-25.853831-17.887392-33.213449-11.167341-7.359618-25.284873-8.616238-37.575804-3.342118L157.132248 225.237881c-14.617929 6.271844-24.093744 20.649296-24.093744 36.555567l0 611.035574-42.34441 0c-7.78429 0-14.09502 6.310729-14.09502 14.093996l0 45.845141c0 7.783267 6.310729 14.093996 14.09502 14.093996l842.024435 0c7.783267 0 14.093996-6.310729 14.093996-14.093996L946.812525 886.923018C946.812525 879.138728 940.501796 872.827999 932.718529 872.827999zM704.831308 328.630692c0-7.78429 6.309706-14.09502 14.09502-14.09502l44.775786 0c7.78429 0 14.09502 6.310729 14.09502 14.09502l0 44.776809c0 7.78429-6.310729 14.09502-14.09502 14.09502L718.927351 387.502521c-7.785314 0-14.09502-6.310729-14.09502-14.09502L704.832332 328.630692zM704.831308 441.376523c0-7.78429 6.309706-14.09502 14.09502-14.09502l44.775786 0c7.78429 0 14.09502 6.310729 14.09502 14.09502l0 44.777833c0 7.78429-6.310729 14.09502-14.09502 14.09502L718.927351 500.249375c-7.785314 0-14.09502-6.310729-14.09502-14.09502L704.832332 441.376523zM704.831308 554.12133c0-7.783267 6.309706-14.093996 14.09502-14.093996l44.775786 0c7.78429 0 14.09502 6.310729 14.09502 14.093996l0 44.778856c0 7.783267-6.310729 14.093996-14.09502 14.093996L718.927351 612.994182c-7.785314 0-14.09502-6.310729-14.09502-14.093996L704.832332 554.12133zM704.831308 666.86716c0-7.783267 6.309706-14.093996 14.09502-14.093996l44.775786 0c7.78429 0 14.09502 6.310729 14.09502 14.093996l0 44.778856c0 7.783267-6.310729 14.093996-14.09502 14.093996L718.927351 725.740012c-7.785314 0-14.09502-6.310729-14.09502-14.093996L704.832332 666.86716zM704.831308 779.61299c0-7.783267 6.309706-14.093996 14.09502-14.093996l44.775786 0c7.78429 0 14.09502 6.310729 14.09502 14.093996l0 44.778856c0 7.783267-6.310729 14.093996-14.09502 14.093996L718.927351 838.485843c-7.785314 0-14.09502-6.310729-14.09502-14.093996L704.832332 779.61299zM372.199489 215.884862c0-7.78429 6.310729-14.09502 14.09502-14.09502L431.071318 201.789842c7.78429 0 14.09502 6.310729 14.09502 14.09502l0 44.776809c0 7.78429-6.310729 14.09502-14.09502 14.09502l-44.776809 0c-7.78429 0-14.09502-6.310729-14.09502-14.09502L372.199489 215.884862zM372.199489 328.630692c0-7.78429 6.310729-14.09502 14.09502-14.09502L431.071318 314.535673c7.78429 0 14.09502 6.310729 14.09502 14.09502l0 44.776809c0 7.78429-6.310729 14.09502-14.09502 14.09502l-44.776809 0c-7.78429 0-14.09502-6.310729-14.09502-14.09502L372.199489 328.630692zM372.199489 441.376523c0-7.78429 6.310729-14.09502 14.09502-14.09502L431.071318 427.281503c7.78429 0 14.09502 6.310729 14.09502 14.09502l0 44.777833c0 7.78429-6.310729 14.09502-14.09502 14.09502l-44.776809 0c-7.78429 0-14.09502-6.310729-14.09502-14.09502L372.199489 441.376523zM372.199489 554.12133c0-7.783267 6.310729-14.093996 14.09502-14.093996L431.071318 540.027333c7.78429 0 14.09502 6.310729 14.09502 14.093996l0 44.778856c0 7.783267-6.310729 14.093996-14.09502 14.093996l-44.776809 0c-7.78429 0-14.09502-6.310729-14.09502-14.093996L372.199489 554.12133zM372.199489 666.86716c0-7.783267 6.310729-14.093996 14.09502-14.093996L431.071318 652.773164c7.78429 0 14.09502 6.310729 14.09502 14.093996l0 44.778856c0 7.783267-6.310729 14.093996-14.09502 14.093996l-44.776809 0c-7.78429 0-14.09502-6.310729-14.09502-14.093996L372.199489 666.86716zM372.199489 779.61299c0-7.783267 6.310729-14.093996 14.09502-14.093996L431.071318 765.518994c7.78429 0 14.09502 6.310729 14.09502 14.093996l0 44.778856c0 7.783267-6.310729 14.093996-14.09502 14.093996l-44.776809 0c-7.78429 0-14.09502-6.310729-14.09502-14.093996L372.199489 779.61299zM236.460991 328.630692c0-7.78429 6.310729-14.09502 14.09502-14.09502l44.776809 0c7.78429 0 14.09502 6.310729 14.09502 14.09502l0 44.776809c0 7.78429-6.310729 14.09502-14.09502 14.09502l-44.776809 0c-7.78429 0-14.09502-6.310729-14.09502-14.09502L236.460991 328.630692zM236.460991 441.376523c0-7.78429 6.310729-14.09502 14.09502-14.09502l44.776809 0c7.78429 0 14.09502 6.310729 14.09502 14.09502l0 44.777833c0 7.78429-6.310729 14.09502-14.09502 14.09502l-44.776809 0c-7.78429 0-14.09502-6.310729-14.09502-14.09502L236.460991 441.376523zM236.460991 554.12133c0-7.783267 6.310729-14.093996 14.09502-14.093996l44.776809 0c7.78429 0 14.09502 6.310729 14.09502 14.093996l0 44.778856c0 7.783267-6.310729 14.093996-14.09502 14.093996l-44.776809 0c-7.78429 0-14.09502-6.310729-14.09502-14.093996L236.460991 554.12133zM236.460991 666.86716c0-7.783267 6.310729-14.093996 14.09502-14.093996l44.776809 0c7.78429 0 14.09502 6.310729 14.09502 14.093996l0 44.778856c0 7.783267-6.310729 14.093996-14.09502 14.093996l-44.776809 0c-7.78429 0-14.09502-6.310729-14.09502-14.093996L236.460991 666.86716zM236.460991 779.61299c0-7.783267 6.310729-14.093996 14.09502-14.093996l44.776809 0c7.78429 0 14.09502 6.310729 14.09502 14.093996l0 44.778856c0 7.783267-6.310729 14.093996-14.09502 14.093996l-44.776809 0c-7.78429 0-14.09502-6.310729-14.09502-14.093996L236.460991 779.61299z" p-id="4880" fill="#ffffff"></path></svg>